<mxfile host="Electron" agent="Mozilla/5.0 (Windows NT 10.0; Win64; x64) AppleWebKit/537.36 (KHTML, like Gecko) draw.io/26.0.16 Chrome/132.0.6834.196 Electron/34.2.0 Safari/537.36" version="26.0.16">
  <diagram name="Page-1" id="aWUXcd9DG55_SVHLmrhw">
    <mxGraphModel dx="2696" dy="2084" grid="1" gridSize="10" guides="1" tooltips="1" connect="1" arrows="1" fold="1" page="1" pageScale="1" pageWidth="850" pageHeight="1100" math="0" shadow="0">
      <root>
        <mxCell id="0" />
        <mxCell id="1" parent="0" />
        <mxCell id="ez_9y8IXUy5wVjMBMklD-14" style="edgeStyle=orthogonalEdgeStyle;rounded=0;orthogonalLoop=1;jettySize=auto;html=1;exitX=0.5;exitY=0.5;exitDx=0;exitDy=0;exitPerimeter=0;" edge="1" parent="1" source="ez_9y8IXUy5wVjMBMklD-1" target="ez_9y8IXUy5wVjMBMklD-13">
          <mxGeometry relative="1" as="geometry" />
        </mxCell>
        <mxCell id="ez_9y8IXUy5wVjMBMklD-29" style="edgeStyle=orthogonalEdgeStyle;rounded=0;orthogonalLoop=1;jettySize=auto;html=1;exitX=1;exitY=1;exitDx=0;exitDy=0;exitPerimeter=0;entryX=0;entryY=0.5;entryDx=0;entryDy=0;" edge="1" parent="1" source="ez_9y8IXUy5wVjMBMklD-1" target="ez_9y8IXUy5wVjMBMklD-28">
          <mxGeometry relative="1" as="geometry" />
        </mxCell>
        <mxCell id="ez_9y8IXUy5wVjMBMklD-81" style="edgeStyle=orthogonalEdgeStyle;rounded=0;orthogonalLoop=1;jettySize=auto;html=1;exitX=1;exitY=1;exitDx=0;exitDy=0;exitPerimeter=0;entryX=0;entryY=0.5;entryDx=0;entryDy=0;" edge="1" parent="1" source="ez_9y8IXUy5wVjMBMklD-1" target="ez_9y8IXUy5wVjMBMklD-80">
          <mxGeometry relative="1" as="geometry" />
        </mxCell>
        <object label="&lt;b&gt;Fisherman&lt;/b&gt;" id="ez_9y8IXUy5wVjMBMklD-1">
          <mxCell style="shape=umlActor;verticalLabelPosition=bottom;verticalAlign=top;html=1;outlineConnect=0;movable=1;resizable=1;rotatable=1;deletable=1;editable=1;locked=0;connectable=1;" vertex="1" parent="1">
            <mxGeometry x="50" width="30" height="60" as="geometry" />
          </mxCell>
        </object>
        <mxCell id="ez_9y8IXUy5wVjMBMklD-5" value="Fish App&amp;nbsp;" style="shape=umlFrame;whiteSpace=wrap;html=1;pointerEvents=0;width=130;height=20;" vertex="1" parent="1">
          <mxGeometry x="200" y="-50" width="1320" height="1140" as="geometry" />
        </mxCell>
        <mxCell id="ez_9y8IXUy5wVjMBMklD-16" style="edgeStyle=orthogonalEdgeStyle;rounded=0;orthogonalLoop=1;jettySize=auto;html=1;exitX=0.5;exitY=0.5;exitDx=0;exitDy=0;exitPerimeter=0;entryX=0;entryY=0.5;entryDx=0;entryDy=0;" edge="1" parent="1" source="ez_9y8IXUy5wVjMBMklD-7" target="ez_9y8IXUy5wVjMBMklD-15">
          <mxGeometry relative="1" as="geometry" />
        </mxCell>
        <object label="&lt;b&gt;Chef&lt;/b&gt;" id="ez_9y8IXUy5wVjMBMklD-7">
          <mxCell style="shape=umlActor;verticalLabelPosition=bottom;verticalAlign=top;html=1;outlineConnect=0;movable=1;resizable=1;rotatable=1;deletable=1;editable=1;locked=0;connectable=1;" vertex="1" parent="1">
            <mxGeometry x="50" y="255" width="30" height="60" as="geometry" />
          </mxCell>
        </object>
        <mxCell id="ez_9y8IXUy5wVjMBMklD-31" style="edgeStyle=orthogonalEdgeStyle;rounded=0;orthogonalLoop=1;jettySize=auto;html=1;exitX=1;exitY=1;exitDx=0;exitDy=0;exitPerimeter=0;entryX=0;entryY=0.5;entryDx=0;entryDy=0;" edge="1" parent="1" source="ez_9y8IXUy5wVjMBMklD-8" target="ez_9y8IXUy5wVjMBMklD-30">
          <mxGeometry relative="1" as="geometry" />
        </mxCell>
        <object label="&lt;b&gt;Rest.&lt;br&gt;Customer&lt;/b&gt;" id="ez_9y8IXUy5wVjMBMklD-8">
          <mxCell style="shape=umlActor;verticalLabelPosition=bottom;verticalAlign=top;html=1;outlineConnect=0;movable=1;resizable=1;rotatable=1;deletable=1;editable=1;locked=0;connectable=1;" vertex="1" parent="1">
            <mxGeometry x="40" y="440" width="30" height="60" as="geometry" />
          </mxCell>
        </object>
        <mxCell id="ez_9y8IXUy5wVjMBMklD-13" value="Caches FIsh&lt;br&gt;/Logs Fish." style="ellipse;whiteSpace=wrap;html=1;" vertex="1" parent="1">
          <mxGeometry x="320" y="-5" width="140" height="70" as="geometry" />
        </mxCell>
        <mxCell id="ez_9y8IXUy5wVjMBMklD-15" value="Uses recipe to Cook" style="ellipse;whiteSpace=wrap;html=1;" vertex="1" parent="1">
          <mxGeometry x="310" y="250" width="140" height="70" as="geometry" />
        </mxCell>
        <mxCell id="ez_9y8IXUy5wVjMBMklD-17" value="Order Food" style="ellipse;whiteSpace=wrap;html=1;" vertex="1" parent="1">
          <mxGeometry x="310" y="370" width="140" height="70" as="geometry" />
        </mxCell>
        <mxCell id="ez_9y8IXUy5wVjMBMklD-18" style="edgeStyle=orthogonalEdgeStyle;rounded=0;orthogonalLoop=1;jettySize=auto;html=1;entryX=0.021;entryY=0.6;entryDx=0;entryDy=0;entryPerimeter=0;" edge="1" parent="1" source="ez_9y8IXUy5wVjMBMklD-8" target="ez_9y8IXUy5wVjMBMklD-17">
          <mxGeometry relative="1" as="geometry" />
        </mxCell>
        <mxCell id="ez_9y8IXUy5wVjMBMklD-20" value="Rates Food" style="ellipse;whiteSpace=wrap;html=1;" vertex="1" parent="1">
          <mxGeometry x="900" y="460" width="140" height="70" as="geometry" />
        </mxCell>
        <mxCell id="ez_9y8IXUy5wVjMBMklD-21" style="edgeStyle=orthogonalEdgeStyle;rounded=0;orthogonalLoop=1;jettySize=auto;html=1;exitX=1;exitY=1;exitDx=0;exitDy=0;exitPerimeter=0;entryX=0.007;entryY=0.614;entryDx=0;entryDy=0;entryPerimeter=0;" edge="1" parent="1" source="ez_9y8IXUy5wVjMBMklD-8" target="ez_9y8IXUy5wVjMBMklD-20">
          <mxGeometry relative="1" as="geometry" />
        </mxCell>
        <mxCell id="ez_9y8IXUy5wVjMBMklD-25" style="edgeStyle=orthogonalEdgeStyle;rounded=0;orthogonalLoop=1;jettySize=auto;html=1;exitX=0.5;exitY=0.5;exitDx=0;exitDy=0;exitPerimeter=0;entryX=0;entryY=0.5;entryDx=0;entryDy=0;" edge="1" parent="1" source="ez_9y8IXUy5wVjMBMklD-23" target="ez_9y8IXUy5wVjMBMklD-24">
          <mxGeometry relative="1" as="geometry" />
        </mxCell>
        <mxCell id="ez_9y8IXUy5wVjMBMklD-23" value="Seller" style="shape=umlActor;verticalLabelPosition=bottom;verticalAlign=top;html=1;" vertex="1" parent="1">
          <mxGeometry x="-70" y="710" width="30" height="60" as="geometry" />
        </mxCell>
        <mxCell id="ez_9y8IXUy5wVjMBMklD-24" value="Sells fish" style="ellipse;whiteSpace=wrap;html=1;" vertex="1" parent="1">
          <mxGeometry x="300" y="790" width="140" height="70" as="geometry" />
        </mxCell>
        <mxCell id="ez_9y8IXUy5wVjMBMklD-28" value="Checks weather." style="ellipse;whiteSpace=wrap;html=1;" vertex="1" parent="1">
          <mxGeometry x="320" y="130" width="140" height="70" as="geometry" />
        </mxCell>
        <mxCell id="ez_9y8IXUy5wVjMBMklD-30" value="Searches Food" style="ellipse;whiteSpace=wrap;html=1;" vertex="1" parent="1">
          <mxGeometry x="310" y="570" width="140" height="70" as="geometry" />
        </mxCell>
        <mxCell id="ez_9y8IXUy5wVjMBMklD-32" value="Places Order" style="ellipse;whiteSpace=wrap;html=1;" vertex="1" parent="1">
          <mxGeometry x="650" y="310" width="140" height="70" as="geometry" />
        </mxCell>
        <mxCell id="ez_9y8IXUy5wVjMBMklD-34" value="Cancel Order" style="ellipse;whiteSpace=wrap;html=1;" vertex="1" parent="1">
          <mxGeometry x="650" y="410" width="140" height="70" as="geometry" />
        </mxCell>
        <mxCell id="ez_9y8IXUy5wVjMBMklD-35" value="" style="endArrow=block;dashed=1;endFill=0;endSize=12;html=1;rounded=0;entryX=1;entryY=0.5;entryDx=0;entryDy=0;" edge="1" parent="1" source="ez_9y8IXUy5wVjMBMklD-39" target="ez_9y8IXUy5wVjMBMklD-17">
          <mxGeometry width="160" relative="1" as="geometry">
            <mxPoint x="650" y="430" as="sourcePoint" />
            <mxPoint x="810" y="430" as="targetPoint" />
          </mxGeometry>
        </mxCell>
        <mxCell id="ez_9y8IXUy5wVjMBMklD-36" value="" style="endArrow=block;dashed=1;endFill=0;endSize=12;html=1;rounded=0;entryX=0.936;entryY=0.257;entryDx=0;entryDy=0;entryPerimeter=0;" edge="1" parent="1" source="ez_9y8IXUy5wVjMBMklD-37" target="ez_9y8IXUy5wVjMBMklD-17">
          <mxGeometry width="160" relative="1" as="geometry">
            <mxPoint x="650" y="345" as="sourcePoint" />
            <mxPoint x="450" y="320" as="targetPoint" />
            <Array as="points" />
          </mxGeometry>
        </mxCell>
        <mxCell id="ez_9y8IXUy5wVjMBMklD-38" value="" style="endArrow=block;dashed=1;endFill=0;endSize=12;html=1;rounded=0;entryX=0.936;entryY=0.257;entryDx=0;entryDy=0;entryPerimeter=0;" edge="1" parent="1" target="ez_9y8IXUy5wVjMBMklD-37">
          <mxGeometry width="160" relative="1" as="geometry">
            <mxPoint x="650" y="345" as="sourcePoint" />
            <mxPoint x="441" y="388" as="targetPoint" />
            <Array as="points" />
          </mxGeometry>
        </mxCell>
        <mxCell id="ez_9y8IXUy5wVjMBMklD-37" value="&amp;lt;Include&amp;gt;" style="text;align=center;fontStyle=1;verticalAlign=middle;spacingLeft=3;spacingRight=3;strokeColor=none;rotatable=0;points=[[0,0.5],[1,0.5]];portConstraint=eastwest;html=1;" vertex="1" parent="1">
          <mxGeometry x="510" y="344" width="80" height="26" as="geometry" />
        </mxCell>
        <mxCell id="ez_9y8IXUy5wVjMBMklD-40" value="" style="endArrow=block;dashed=1;endFill=0;endSize=12;html=1;rounded=0;entryX=1;entryY=0.5;entryDx=0;entryDy=0;" edge="1" parent="1" target="ez_9y8IXUy5wVjMBMklD-39">
          <mxGeometry width="160" relative="1" as="geometry">
            <mxPoint x="650" y="430" as="sourcePoint" />
            <mxPoint x="450" y="405" as="targetPoint" />
          </mxGeometry>
        </mxCell>
        <mxCell id="ez_9y8IXUy5wVjMBMklD-39" value="&amp;lt;include&amp;gt;" style="text;align=center;fontStyle=1;verticalAlign=middle;spacingLeft=3;spacingRight=3;strokeColor=none;rotatable=0;points=[[0,0.5],[1,0.5]];portConstraint=eastwest;html=1;" vertex="1" parent="1">
          <mxGeometry x="520" y="400" width="80" height="26" as="geometry" />
        </mxCell>
        <mxCell id="ez_9y8IXUy5wVjMBMklD-42" value="" style="endArrow=block;dashed=1;endFill=0;endSize=12;html=1;rounded=0;entryX=0.5;entryY=0;entryDx=0;entryDy=0;" edge="1" parent="1" target="ez_9y8IXUy5wVjMBMklD-32">
          <mxGeometry width="160" relative="1" as="geometry">
            <mxPoint x="460" y="284.5" as="sourcePoint" />
            <mxPoint x="610" y="284.5" as="targetPoint" />
            <Array as="points">
              <mxPoint x="510" y="290" />
            </Array>
          </mxGeometry>
        </mxCell>
        <mxCell id="ez_9y8IXUy5wVjMBMklD-43" value="Extends" style="text;align=center;fontStyle=1;verticalAlign=middle;spacingLeft=3;spacingRight=3;strokeColor=none;rotatable=0;points=[[0,0.5],[1,0.5]];portConstraint=eastwest;html=1;" vertex="1" parent="1">
          <mxGeometry x="540" y="272" width="80" height="26" as="geometry" />
        </mxCell>
        <mxCell id="ez_9y8IXUy5wVjMBMklD-44" value="Checks if legal" style="ellipse;whiteSpace=wrap;html=1;" vertex="1" parent="1">
          <mxGeometry x="660" y="-10" width="140" height="70" as="geometry" />
        </mxCell>
        <mxCell id="ez_9y8IXUy5wVjMBMklD-46" value="" style="endArrow=block;dashed=1;endFill=0;endSize=12;html=1;rounded=0;entryX=0.014;entryY=0.614;entryDx=0;entryDy=0;entryPerimeter=0;" edge="1" parent="1" target="ez_9y8IXUy5wVjMBMklD-44">
          <mxGeometry width="160" relative="1" as="geometry">
            <mxPoint x="460" y="20" as="sourcePoint" />
            <mxPoint x="720" y="45.5" as="targetPoint" />
            <Array as="points" />
          </mxGeometry>
        </mxCell>
        <mxCell id="ez_9y8IXUy5wVjMBMklD-47" value="extends" style="text;align=center;fontStyle=1;verticalAlign=middle;spacingLeft=3;spacingRight=3;strokeColor=none;rotatable=0;points=[[0,0.5],[1,0.5]];portConstraint=eastwest;html=1;" vertex="1" parent="1">
          <mxGeometry x="520" y="-10" width="80" height="26" as="geometry" />
        </mxCell>
        <mxCell id="ez_9y8IXUy5wVjMBMklD-48" value="By Rating" style="ellipse;whiteSpace=wrap;html=1;" vertex="1" parent="1">
          <mxGeometry x="640" y="520" width="140" height="70" as="geometry" />
        </mxCell>
        <mxCell id="ez_9y8IXUy5wVjMBMklD-49" value="Alphabetically" style="ellipse;whiteSpace=wrap;html=1;" vertex="1" parent="1">
          <mxGeometry x="640" y="620" width="140" height="70" as="geometry" />
        </mxCell>
        <mxCell id="ez_9y8IXUy5wVjMBMklD-50" value="Cheapest to&lt;br&gt;Most expensive" style="ellipse;whiteSpace=wrap;html=1;" vertex="1" parent="1">
          <mxGeometry x="620" y="750" width="140" height="70" as="geometry" />
        </mxCell>
        <mxCell id="ez_9y8IXUy5wVjMBMklD-51" value="" style="endArrow=block;dashed=1;endFill=0;endSize=12;html=1;rounded=0;entryX=0.943;entryY=0.657;entryDx=0;entryDy=0;exitX=-0.007;exitY=0.357;exitDx=0;exitDy=0;exitPerimeter=0;entryPerimeter=0;" edge="1" parent="1" source="ez_9y8IXUy5wVjMBMklD-59" target="ez_9y8IXUy5wVjMBMklD-30">
          <mxGeometry width="160" relative="1" as="geometry">
            <mxPoint x="370" y="674.5" as="sourcePoint" />
            <mxPoint x="630" y="700" as="targetPoint" />
            <Array as="points" />
          </mxGeometry>
        </mxCell>
        <mxCell id="ez_9y8IXUy5wVjMBMklD-52" value="" style="endArrow=block;dashed=1;endFill=0;endSize=12;html=1;rounded=0;entryX=1;entryY=0.5;entryDx=0;entryDy=0;exitX=0;exitY=0.5;exitDx=0;exitDy=0;" edge="1" parent="1" source="ez_9y8IXUy5wVjMBMklD-57" target="ez_9y8IXUy5wVjMBMklD-30">
          <mxGeometry width="160" relative="1" as="geometry">
            <mxPoint x="980" y="570" as="sourcePoint" />
            <mxPoint x="1240" y="595.5" as="targetPoint" />
            <Array as="points" />
          </mxGeometry>
        </mxCell>
        <mxCell id="ez_9y8IXUy5wVjMBMklD-54" value="" style="endArrow=block;dashed=1;endFill=0;endSize=12;html=1;rounded=0;entryX=1;entryY=0;entryDx=0;entryDy=0;exitX=-0.007;exitY=0.614;exitDx=0;exitDy=0;exitPerimeter=0;" edge="1" parent="1" source="ez_9y8IXUy5wVjMBMklD-55" target="ez_9y8IXUy5wVjMBMklD-30">
          <mxGeometry width="160" relative="1" as="geometry">
            <mxPoint x="1030" y="590" as="sourcePoint" />
            <mxPoint x="1290" y="615.5" as="targetPoint" />
            <Array as="points" />
          </mxGeometry>
        </mxCell>
        <mxCell id="ez_9y8IXUy5wVjMBMklD-56" value="" style="endArrow=block;dashed=1;endFill=0;endSize=12;html=1;rounded=0;entryX=1;entryY=0;entryDx=0;entryDy=0;exitX=-0.007;exitY=0.614;exitDx=0;exitDy=0;exitPerimeter=0;" edge="1" parent="1" source="ez_9y8IXUy5wVjMBMklD-48" target="ez_9y8IXUy5wVjMBMklD-55">
          <mxGeometry width="160" relative="1" as="geometry">
            <mxPoint x="639" y="563" as="sourcePoint" />
            <mxPoint x="429" y="580" as="targetPoint" />
            <Array as="points" />
          </mxGeometry>
        </mxCell>
        <mxCell id="ez_9y8IXUy5wVjMBMklD-55" value="&amp;lt;Include&amp;gt;" style="text;align=center;fontStyle=1;verticalAlign=middle;spacingLeft=3;spacingRight=3;strokeColor=none;rotatable=0;points=[[0,0.5],[1,0.5]];portConstraint=eastwest;html=1;" vertex="1" parent="1">
          <mxGeometry x="510" y="560" width="80" height="26" as="geometry" />
        </mxCell>
        <mxCell id="ez_9y8IXUy5wVjMBMklD-58" value="" style="endArrow=block;dashed=1;endFill=0;endSize=12;html=1;rounded=0;entryX=1;entryY=0.5;entryDx=0;entryDy=0;exitX=0;exitY=0.5;exitDx=0;exitDy=0;" edge="1" parent="1" source="ez_9y8IXUy5wVjMBMklD-49" target="ez_9y8IXUy5wVjMBMklD-57">
          <mxGeometry width="160" relative="1" as="geometry">
            <mxPoint x="640" y="655" as="sourcePoint" />
            <mxPoint x="450" y="605" as="targetPoint" />
            <Array as="points" />
          </mxGeometry>
        </mxCell>
        <mxCell id="ez_9y8IXUy5wVjMBMklD-57" value="&amp;lt;Include&amp;gt;" style="text;align=center;fontStyle=1;verticalAlign=middle;spacingLeft=3;spacingRight=3;strokeColor=none;rotatable=0;points=[[0,0.5],[1,0.5]];portConstraint=eastwest;html=1;" vertex="1" parent="1">
          <mxGeometry x="510" y="620" width="80" height="26" as="geometry" />
        </mxCell>
        <mxCell id="ez_9y8IXUy5wVjMBMklD-60" value="" style="endArrow=block;dashed=1;endFill=0;endSize=12;html=1;rounded=0;entryX=0.943;entryY=0.657;entryDx=0;entryDy=0;exitX=-0.007;exitY=0.357;exitDx=0;exitDy=0;exitPerimeter=0;entryPerimeter=0;" edge="1" parent="1" source="ez_9y8IXUy5wVjMBMklD-50" target="ez_9y8IXUy5wVjMBMklD-59">
          <mxGeometry width="160" relative="1" as="geometry">
            <mxPoint x="619" y="775" as="sourcePoint" />
            <mxPoint x="442" y="616" as="targetPoint" />
            <Array as="points" />
          </mxGeometry>
        </mxCell>
        <mxCell id="ez_9y8IXUy5wVjMBMklD-59" value="&amp;lt;include&amp;gt;" style="text;align=center;fontStyle=1;verticalAlign=middle;spacingLeft=3;spacingRight=3;strokeColor=none;rotatable=0;points=[[0,0.5],[1,0.5]];portConstraint=eastwest;html=1;" vertex="1" parent="1">
          <mxGeometry x="460" y="670" width="80" height="26" as="geometry" />
        </mxCell>
        <mxCell id="ez_9y8IXUy5wVjMBMklD-64" value="1 star review" style="ellipse;whiteSpace=wrap;html=1;" vertex="1" parent="1">
          <mxGeometry x="1210" y="410" width="140" height="70" as="geometry" />
        </mxCell>
        <mxCell id="ez_9y8IXUy5wVjMBMklD-65" value="2 star review" style="ellipse;whiteSpace=wrap;html=1;" vertex="1" parent="1">
          <mxGeometry x="1210" y="510" width="140" height="70" as="geometry" />
        </mxCell>
        <mxCell id="ez_9y8IXUy5wVjMBMklD-66" value="3 star review" style="ellipse;whiteSpace=wrap;html=1;" vertex="1" parent="1">
          <mxGeometry x="1190" y="640" width="140" height="70" as="geometry" />
        </mxCell>
        <mxCell id="ez_9y8IXUy5wVjMBMklD-67" value="" style="endArrow=block;dashed=1;endFill=0;endSize=12;html=1;rounded=0;entryX=1;entryY=0;entryDx=0;entryDy=0;exitX=-0.007;exitY=0.614;exitDx=0;exitDy=0;exitPerimeter=0;" edge="1" parent="1" source="ez_9y8IXUy5wVjMBMklD-71" target="ez_9y8IXUy5wVjMBMklD-20">
          <mxGeometry width="160" relative="1" as="geometry">
            <mxPoint x="1209" y="453" as="sourcePoint" />
            <mxPoint x="1160" y="450" as="targetPoint" />
            <Array as="points" />
          </mxGeometry>
        </mxCell>
        <mxCell id="ez_9y8IXUy5wVjMBMklD-68" value="" style="endArrow=block;dashed=1;endFill=0;endSize=12;html=1;rounded=0;entryX=1;entryY=0.614;entryDx=0;entryDy=0;exitX=0;exitY=0.5;exitDx=0;exitDy=0;entryPerimeter=0;" edge="1" parent="1" source="ez_9y8IXUy5wVjMBMklD-73" target="ez_9y8IXUy5wVjMBMklD-20">
          <mxGeometry width="160" relative="1" as="geometry">
            <mxPoint x="1210" y="545" as="sourcePoint" />
            <mxPoint x="1160" y="523" as="targetPoint" />
            <Array as="points" />
          </mxGeometry>
        </mxCell>
        <mxCell id="ez_9y8IXUy5wVjMBMklD-70" value="" style="endArrow=block;dashed=1;endFill=0;endSize=12;html=1;rounded=0;exitX=0;exitY=0.5;exitDx=0;exitDy=0;" edge="1" parent="1" source="ez_9y8IXUy5wVjMBMklD-75" target="ez_9y8IXUy5wVjMBMklD-20">
          <mxGeometry width="160" relative="1" as="geometry">
            <mxPoint x="1190" y="668" as="sourcePoint" />
            <mxPoint x="1140" y="646" as="targetPoint" />
            <Array as="points" />
          </mxGeometry>
        </mxCell>
        <mxCell id="ez_9y8IXUy5wVjMBMklD-72" value="" style="endArrow=block;dashed=1;endFill=0;endSize=12;html=1;rounded=0;entryX=1;entryY=0;entryDx=0;entryDy=0;exitX=-0.007;exitY=0.614;exitDx=0;exitDy=0;exitPerimeter=0;" edge="1" parent="1" source="ez_9y8IXUy5wVjMBMklD-64" target="ez_9y8IXUy5wVjMBMklD-71">
          <mxGeometry width="160" relative="1" as="geometry">
            <mxPoint x="1209" y="453" as="sourcePoint" />
            <mxPoint x="1019" y="470" as="targetPoint" />
            <Array as="points" />
          </mxGeometry>
        </mxCell>
        <mxCell id="ez_9y8IXUy5wVjMBMklD-71" value="&amp;lt;include&amp;gt;" style="text;align=center;fontStyle=1;verticalAlign=middle;spacingLeft=3;spacingRight=3;strokeColor=none;rotatable=0;points=[[0,0.5],[1,0.5]];portConstraint=eastwest;html=1;" vertex="1" parent="1">
          <mxGeometry x="1100" y="450" width="80" height="26" as="geometry" />
        </mxCell>
        <mxCell id="ez_9y8IXUy5wVjMBMklD-74" value="" style="endArrow=block;dashed=1;endFill=0;endSize=12;html=1;rounded=0;entryX=1;entryY=0.614;entryDx=0;entryDy=0;exitX=0;exitY=0.5;exitDx=0;exitDy=0;entryPerimeter=0;" edge="1" parent="1" source="ez_9y8IXUy5wVjMBMklD-65" target="ez_9y8IXUy5wVjMBMklD-73">
          <mxGeometry width="160" relative="1" as="geometry">
            <mxPoint x="1210" y="545" as="sourcePoint" />
            <mxPoint x="1040" y="503" as="targetPoint" />
            <Array as="points" />
          </mxGeometry>
        </mxCell>
        <mxCell id="ez_9y8IXUy5wVjMBMklD-73" value="&amp;lt;include&amp;gt;" style="text;align=center;fontStyle=1;verticalAlign=middle;spacingLeft=3;spacingRight=3;strokeColor=none;rotatable=0;points=[[0,0.5],[1,0.5]];portConstraint=eastwest;html=1;" vertex="1" parent="1">
          <mxGeometry x="1100" y="520" width="80" height="26" as="geometry" />
        </mxCell>
        <mxCell id="ez_9y8IXUy5wVjMBMklD-76" value="" style="endArrow=block;dashed=1;endFill=0;endSize=12;html=1;rounded=0;exitX=0;exitY=0.5;exitDx=0;exitDy=0;" edge="1" parent="1" target="ez_9y8IXUy5wVjMBMklD-75">
          <mxGeometry width="160" relative="1" as="geometry">
            <mxPoint x="1190" y="668" as="sourcePoint" />
            <mxPoint x="1008" y="525" as="targetPoint" />
            <Array as="points" />
          </mxGeometry>
        </mxCell>
        <mxCell id="ez_9y8IXUy5wVjMBMklD-75" value="&amp;lt;include&amp;gt;" style="text;align=center;fontStyle=1;verticalAlign=middle;spacingLeft=3;spacingRight=3;strokeColor=none;rotatable=0;points=[[0,0.5],[1,0.5]];portConstraint=eastwest;html=1;" vertex="1" parent="1">
          <mxGeometry x="1060" y="580" width="80" height="26" as="geometry" />
        </mxCell>
        <mxCell id="ez_9y8IXUy5wVjMBMklD-77" value="Puts price" style="ellipse;whiteSpace=wrap;html=1;" vertex="1" parent="1">
          <mxGeometry x="590" y="900" width="140" height="70" as="geometry" />
        </mxCell>
        <mxCell id="ez_9y8IXUy5wVjMBMklD-78" value="" style="endArrow=block;dashed=1;endFill=0;endSize=12;html=1;rounded=0;entryX=0.037;entryY=0.615;entryDx=0;entryDy=0;exitX=0.655;exitY=0.976;exitDx=0;exitDy=0;exitPerimeter=0;entryPerimeter=0;" edge="1" parent="1" source="ez_9y8IXUy5wVjMBMklD-24" target="ez_9y8IXUy5wVjMBMklD-77">
          <mxGeometry width="160" relative="1" as="geometry">
            <mxPoint x="590" y="928" as="sourcePoint" />
            <mxPoint x="506" y="840" as="targetPoint" />
            <Array as="points" />
          </mxGeometry>
        </mxCell>
        <mxCell id="ez_9y8IXUy5wVjMBMklD-79" value="extends" style="text;align=center;fontStyle=1;verticalAlign=middle;spacingLeft=3;spacingRight=3;strokeColor=none;rotatable=0;points=[[0,0.5],[1,0.5]];portConstraint=eastwest;html=1;" vertex="1" parent="1">
          <mxGeometry x="500" y="860" width="80" height="26" as="geometry" />
        </mxCell>
        <mxCell id="ez_9y8IXUy5wVjMBMklD-80" value="Serches info&lt;br&gt;for Bait" style="ellipse;whiteSpace=wrap;html=1;" vertex="1" parent="1">
          <mxGeometry x="620" y="81" width="140" height="70" as="geometry" />
        </mxCell>
        <mxCell id="ez_9y8IXUy5wVjMBMklD-100" value="Alphabetically" style="ellipse;whiteSpace=wrap;html=1;" vertex="1" parent="1">
          <mxGeometry x="1070" y="40" width="140" height="70" as="geometry" />
        </mxCell>
        <mxCell id="ez_9y8IXUy5wVjMBMklD-101" value="Cheapest to most expensive" style="ellipse;whiteSpace=wrap;html=1;" vertex="1" parent="1">
          <mxGeometry x="1070" y="140" width="140" height="70" as="geometry" />
        </mxCell>
        <mxCell id="ez_9y8IXUy5wVjMBMklD-102" value="Most succesful bait" style="ellipse;whiteSpace=wrap;html=1;" vertex="1" parent="1">
          <mxGeometry x="1050" y="270" width="140" height="70" as="geometry" />
        </mxCell>
        <mxCell id="ez_9y8IXUy5wVjMBMklD-103" value="" style="endArrow=block;dashed=1;endFill=0;endSize=12;html=1;rounded=0;entryX=0.971;entryY=0.329;entryDx=0;entryDy=0;exitX=-0.007;exitY=0.614;exitDx=0;exitDy=0;exitPerimeter=0;entryPerimeter=0;" edge="1" parent="1" source="ez_9y8IXUy5wVjMBMklD-107" target="ez_9y8IXUy5wVjMBMklD-80">
          <mxGeometry width="160" relative="1" as="geometry">
            <mxPoint x="1069" y="83" as="sourcePoint" />
            <mxPoint x="879" y="100" as="targetPoint" />
            <Array as="points" />
          </mxGeometry>
        </mxCell>
        <mxCell id="ez_9y8IXUy5wVjMBMklD-104" value="" style="endArrow=block;dashed=1;endFill=0;endSize=12;html=1;rounded=0;entryX=0.971;entryY=0.686;entryDx=0;entryDy=0;exitX=0;exitY=0.5;exitDx=0;exitDy=0;entryPerimeter=0;" edge="1" parent="1" source="ez_9y8IXUy5wVjMBMklD-109" target="ez_9y8IXUy5wVjMBMklD-80">
          <mxGeometry width="160" relative="1" as="geometry">
            <mxPoint x="1070" y="175" as="sourcePoint" />
            <mxPoint x="900" y="133" as="targetPoint" />
            <Array as="points" />
          </mxGeometry>
        </mxCell>
        <mxCell id="ez_9y8IXUy5wVjMBMklD-105" value="" style="endArrow=block;dashed=1;endFill=0;endSize=12;html=1;rounded=0;exitX=0;exitY=0.5;exitDx=0;exitDy=0;entryX=0.8;entryY=0.871;entryDx=0;entryDy=0;entryPerimeter=0;" edge="1" parent="1" source="ez_9y8IXUy5wVjMBMklD-111" target="ez_9y8IXUy5wVjMBMklD-80">
          <mxGeometry width="160" relative="1" as="geometry">
            <mxPoint x="1050" y="298" as="sourcePoint" />
            <mxPoint x="859" y="157" as="targetPoint" />
            <Array as="points" />
          </mxGeometry>
        </mxCell>
        <mxCell id="ez_9y8IXUy5wVjMBMklD-106" value="" style="endArrow=block;dashed=1;endFill=0;endSize=12;html=1;rounded=0;entryX=1;entryY=0;entryDx=0;entryDy=0;exitX=-0.007;exitY=0.614;exitDx=0;exitDy=0;exitPerimeter=0;" edge="1" parent="1" source="ez_9y8IXUy5wVjMBMklD-100" target="ez_9y8IXUy5wVjMBMklD-107">
          <mxGeometry width="160" relative="1" as="geometry">
            <mxPoint x="1069" y="83" as="sourcePoint" />
            <mxPoint x="879" y="100" as="targetPoint" />
            <Array as="points" />
          </mxGeometry>
        </mxCell>
        <mxCell id="ez_9y8IXUy5wVjMBMklD-107" value="&amp;lt;include&amp;gt;" style="text;align=center;fontStyle=1;verticalAlign=middle;spacingLeft=3;spacingRight=3;strokeColor=none;rotatable=0;points=[[0,0.5],[1,0.5]];portConstraint=eastwest;html=1;" vertex="1" parent="1">
          <mxGeometry x="960" y="80" width="80" height="26" as="geometry" />
        </mxCell>
        <mxCell id="ez_9y8IXUy5wVjMBMklD-108" value="" style="endArrow=block;dashed=1;endFill=0;endSize=12;html=1;rounded=0;entryX=1;entryY=0.614;entryDx=0;entryDy=0;exitX=0;exitY=0.5;exitDx=0;exitDy=0;entryPerimeter=0;" edge="1" parent="1" source="ez_9y8IXUy5wVjMBMklD-101" target="ez_9y8IXUy5wVjMBMklD-109">
          <mxGeometry width="160" relative="1" as="geometry">
            <mxPoint x="1070" y="175" as="sourcePoint" />
            <mxPoint x="900" y="133" as="targetPoint" />
            <Array as="points" />
          </mxGeometry>
        </mxCell>
        <mxCell id="ez_9y8IXUy5wVjMBMklD-109" value="&amp;lt;include&amp;gt;" style="text;align=center;fontStyle=1;verticalAlign=middle;spacingLeft=3;spacingRight=3;strokeColor=none;rotatable=0;points=[[0,0.5],[1,0.5]];portConstraint=eastwest;html=1;" vertex="1" parent="1">
          <mxGeometry x="960" y="150" width="80" height="26" as="geometry" />
        </mxCell>
        <mxCell id="ez_9y8IXUy5wVjMBMklD-110" value="" style="endArrow=block;dashed=1;endFill=0;endSize=12;html=1;rounded=0;exitX=0;exitY=0.5;exitDx=0;exitDy=0;" edge="1" parent="1" target="ez_9y8IXUy5wVjMBMklD-111">
          <mxGeometry width="160" relative="1" as="geometry">
            <mxPoint x="1050" y="298" as="sourcePoint" />
            <mxPoint x="868" y="155" as="targetPoint" />
            <Array as="points" />
          </mxGeometry>
        </mxCell>
        <mxCell id="ez_9y8IXUy5wVjMBMklD-111" value="&amp;lt;include&amp;gt;" style="text;align=center;fontStyle=1;verticalAlign=middle;spacingLeft=3;spacingRight=3;strokeColor=none;rotatable=0;points=[[0,0.5],[1,0.5]];portConstraint=eastwest;html=1;" vertex="1" parent="1">
          <mxGeometry x="920" y="210" width="80" height="26" as="geometry" />
        </mxCell>
        <mxCell id="ez_9y8IXUy5wVjMBMklD-116" value="&amp;nbsp;User" style="shape=umlActor;verticalLabelPosition=bottom;verticalAlign=top;html=1;" vertex="1" parent="1">
          <mxGeometry x="-280" y="298" width="30" height="60" as="geometry" />
        </mxCell>
        <mxCell id="ez_9y8IXUy5wVjMBMklD-123" style="edgeStyle=orthogonalEdgeStyle;rounded=0;orthogonalLoop=1;jettySize=auto;html=1;exitX=0.25;exitY=0.1;exitDx=0;exitDy=0;exitPerimeter=0;" edge="1" parent="1" source="ez_9y8IXUy5wVjMBMklD-120" target="ez_9y8IXUy5wVjMBMklD-116">
          <mxGeometry relative="1" as="geometry" />
        </mxCell>
        <mxCell id="ez_9y8IXUy5wVjMBMklD-120" value="Seller" style="shape=umlActor;verticalLabelPosition=bottom;verticalAlign=top;html=1;" vertex="1" parent="1">
          <mxGeometry x="-410" y="470" width="30" height="60" as="geometry" />
        </mxCell>
        <mxCell id="ez_9y8IXUy5wVjMBMklD-125" style="edgeStyle=orthogonalEdgeStyle;rounded=0;orthogonalLoop=1;jettySize=auto;html=1;" edge="1" parent="1" source="ez_9y8IXUy5wVjMBMklD-121">
          <mxGeometry relative="1" as="geometry">
            <mxPoint x="-265" y="470" as="targetPoint" />
          </mxGeometry>
        </mxCell>
        <object label="&lt;b&gt;Chef&lt;/b&gt;" id="ez_9y8IXUy5wVjMBMklD-121">
          <mxCell style="shape=umlActor;verticalLabelPosition=bottom;verticalAlign=top;html=1;outlineConnect=0;movable=1;resizable=1;rotatable=1;deletable=1;editable=1;locked=0;connectable=1;" vertex="1" parent="1">
            <mxGeometry x="-280" y="510" width="30" height="60" as="geometry" />
          </mxCell>
        </object>
        <mxCell id="ez_9y8IXUy5wVjMBMklD-126" style="edgeStyle=orthogonalEdgeStyle;rounded=0;orthogonalLoop=1;jettySize=auto;html=1;exitX=0.25;exitY=0.1;exitDx=0;exitDy=0;exitPerimeter=0;" edge="1" parent="1" source="ez_9y8IXUy5wVjMBMklD-122">
          <mxGeometry relative="1" as="geometry">
            <mxPoint x="-270" y="476" as="targetPoint" />
          </mxGeometry>
        </mxCell>
        <object label="&lt;b&gt;Fisherman&lt;/b&gt;" id="ez_9y8IXUy5wVjMBMklD-122">
          <mxCell style="shape=umlActor;verticalLabelPosition=bottom;verticalAlign=top;html=1;outlineConnect=0;movable=1;resizable=1;rotatable=1;deletable=1;editable=1;locked=0;connectable=1;" vertex="1" parent="1">
            <mxGeometry x="-180" y="470" width="30" height="60" as="geometry" />
          </mxCell>
        </object>
      </root>
    </mxGraphModel>
  </diagram>
</mxfile>
